<mxfile host="Electron" agent="Mozilla/5.0 (Windows NT 10.0; Win64; x64) AppleWebKit/537.36 (KHTML, like Gecko) draw.io/26.2.2 Chrome/134.0.6998.178 Electron/35.1.2 Safari/537.36" version="26.2.2">
  <diagram name="Page-1" id="pFCUS-55pzmEJ6Ly-qbT">
    <mxGraphModel dx="3173" dy="1962" grid="1" gridSize="10" guides="1" tooltips="1" connect="1" arrows="1" fold="1" page="1" pageScale="1" pageWidth="850" pageHeight="1100" math="0" shadow="0">
      <root>
        <mxCell id="0" />
        <mxCell id="1" parent="0" />
        <mxCell id="Wh2dDNPKIwwX3DHT57Sx-1" value="" style="shape=umlLifeline;perimeter=lifelinePerimeter;whiteSpace=wrap;html=1;container=1;dropTarget=0;collapsible=0;recursiveResize=0;outlineConnect=0;portConstraint=eastwest;newEdgeStyle={&quot;curved&quot;:0,&quot;rounded&quot;:0};participant=umlActor;" vertex="1" parent="1">
          <mxGeometry x="405" y="440" width="20" height="1300" as="geometry" />
        </mxCell>
        <mxCell id="Wh2dDNPKIwwX3DHT57Sx-2" value="" style="html=1;points=[[0,0,0,0,5],[0,1,0,0,-5],[1,0,0,0,5],[1,1,0,0,-5]];perimeter=orthogonalPerimeter;outlineConnect=0;targetShapes=umlLifeline;portConstraint=eastwest;newEdgeStyle={&quot;curved&quot;:0,&quot;rounded&quot;:0};" vertex="1" parent="Wh2dDNPKIwwX3DHT57Sx-1">
          <mxGeometry x="5" y="80" width="10" height="1220" as="geometry" />
        </mxCell>
        <mxCell id="Wh2dDNPKIwwX3DHT57Sx-3" value="ForumView" style="shape=umlLifeline;perimeter=lifelinePerimeter;whiteSpace=wrap;html=1;container=1;dropTarget=0;collapsible=0;recursiveResize=0;outlineConnect=0;portConstraint=eastwest;newEdgeStyle={&quot;curved&quot;:0,&quot;rounded&quot;:0};" vertex="1" parent="1">
          <mxGeometry x="515" y="440" width="100" height="1300" as="geometry" />
        </mxCell>
        <mxCell id="Wh2dDNPKIwwX3DHT57Sx-4" value="" style="html=1;points=[[0,0,0,0,5],[0,1,0,0,-5],[1,0,0,0,5],[1,1,0,0,-5]];perimeter=orthogonalPerimeter;outlineConnect=0;targetShapes=umlLifeline;portConstraint=eastwest;newEdgeStyle={&quot;curved&quot;:0,&quot;rounded&quot;:0};" vertex="1" parent="Wh2dDNPKIwwX3DHT57Sx-3">
          <mxGeometry x="45" y="80" width="10" height="1220" as="geometry" />
        </mxCell>
        <mxCell id="Wh2dDNPKIwwX3DHT57Sx-5" value="ForumController" style="shape=umlLifeline;perimeter=lifelinePerimeter;whiteSpace=wrap;html=1;container=1;dropTarget=0;collapsible=0;recursiveResize=0;outlineConnect=0;portConstraint=eastwest;newEdgeStyle={&quot;curved&quot;:0,&quot;rounded&quot;:0};" vertex="1" parent="1">
          <mxGeometry x="675" y="440" width="100" height="1300" as="geometry" />
        </mxCell>
        <mxCell id="Wh2dDNPKIwwX3DHT57Sx-6" value="" style="html=1;points=[[0,0,0,0,5],[0,1,0,0,-5],[1,0,0,0,5],[1,1,0,0,-5]];perimeter=orthogonalPerimeter;outlineConnect=0;targetShapes=umlLifeline;portConstraint=eastwest;newEdgeStyle={&quot;curved&quot;:0,&quot;rounded&quot;:0};" vertex="1" parent="Wh2dDNPKIwwX3DHT57Sx-5">
          <mxGeometry x="45" y="80" width="10" height="1220" as="geometry" />
        </mxCell>
        <mxCell id="Wh2dDNPKIwwX3DHT57Sx-7" value="Forum" style="shape=umlLifeline;perimeter=lifelinePerimeter;whiteSpace=wrap;html=1;container=1;dropTarget=0;collapsible=0;recursiveResize=0;outlineConnect=0;portConstraint=eastwest;newEdgeStyle={&quot;curved&quot;:0,&quot;rounded&quot;:0};" vertex="1" parent="1">
          <mxGeometry x="835" y="440" width="100" height="1280" as="geometry" />
        </mxCell>
        <mxCell id="Wh2dDNPKIwwX3DHT57Sx-8" value="" style="html=1;points=[[0,0,0,0,5],[0,1,0,0,-5],[1,0,0,0,5],[1,1,0,0,-5]];perimeter=orthogonalPerimeter;outlineConnect=0;targetShapes=umlLifeline;portConstraint=eastwest;newEdgeStyle={&quot;curved&quot;:0,&quot;rounded&quot;:0};" vertex="1" parent="Wh2dDNPKIwwX3DHT57Sx-7">
          <mxGeometry x="45" y="80" width="10" height="1200" as="geometry" />
        </mxCell>
        <mxCell id="Wh2dDNPKIwwX3DHT57Sx-9" value="Database" style="shape=umlLifeline;perimeter=lifelinePerimeter;whiteSpace=wrap;html=1;container=1;dropTarget=0;collapsible=0;recursiveResize=0;outlineConnect=0;portConstraint=eastwest;newEdgeStyle={&quot;curved&quot;:0,&quot;rounded&quot;:0};" vertex="1" parent="1">
          <mxGeometry x="1155" y="440" width="100" height="1280" as="geometry" />
        </mxCell>
        <mxCell id="Wh2dDNPKIwwX3DHT57Sx-10" value="" style="html=1;points=[[0,0,0,0,5],[0,1,0,0,-5],[1,0,0,0,5],[1,1,0,0,-5]];perimeter=orthogonalPerimeter;outlineConnect=0;targetShapes=umlLifeline;portConstraint=eastwest;newEdgeStyle={&quot;curved&quot;:0,&quot;rounded&quot;:0};" vertex="1" parent="Wh2dDNPKIwwX3DHT57Sx-9">
          <mxGeometry x="45" y="80" width="10" height="1200" as="geometry" />
        </mxCell>
        <mxCell id="Wh2dDNPKIwwX3DHT57Sx-11" value="" style="html=1;verticalAlign=bottom;labelBackgroundColor=none;endArrow=block;endFill=1;rounded=0;" edge="1" parent="1">
          <mxGeometry width="160" relative="1" as="geometry">
            <mxPoint x="425" y="550" as="sourcePoint" />
            <mxPoint x="565.5" y="550" as="targetPoint" />
          </mxGeometry>
        </mxCell>
        <mxCell id="Wh2dDNPKIwwX3DHT57Sx-12" value="clickForumButton()" style="text;html=1;align=center;verticalAlign=middle;resizable=0;points=[];autosize=1;strokeColor=none;fillColor=none;" vertex="1" parent="1">
          <mxGeometry x="415" y="528" width="120" height="30" as="geometry" />
        </mxCell>
        <mxCell id="Wh2dDNPKIwwX3DHT57Sx-13" value="" style="html=1;verticalAlign=bottom;labelBackgroundColor=none;endArrow=block;endFill=1;rounded=0;" edge="1" parent="1">
          <mxGeometry width="160" relative="1" as="geometry">
            <mxPoint x="564.5" y="600" as="sourcePoint" />
            <mxPoint x="725" y="600" as="targetPoint" />
          </mxGeometry>
        </mxCell>
        <mxCell id="Wh2dDNPKIwwX3DHT57Sx-14" value="getAvailableForums()" style="text;html=1;align=center;verticalAlign=middle;resizable=0;points=[];autosize=1;strokeColor=none;fillColor=none;" vertex="1" parent="1">
          <mxGeometry x="565" y="568" width="140" height="30" as="geometry" />
        </mxCell>
        <mxCell id="Wh2dDNPKIwwX3DHT57Sx-15" value="" style="html=1;verticalAlign=bottom;labelBackgroundColor=none;endArrow=block;endFill=1;rounded=0;" edge="1" parent="1">
          <mxGeometry width="160" relative="1" as="geometry">
            <mxPoint x="730" y="650" as="sourcePoint" />
            <mxPoint x="1204.5" y="650" as="targetPoint" />
          </mxGeometry>
        </mxCell>
        <mxCell id="Wh2dDNPKIwwX3DHT57Sx-16" value="SELECT * FROM Forum" style="text;html=1;align=center;verticalAlign=middle;resizable=0;points=[];autosize=1;strokeColor=none;fillColor=none;" vertex="1" parent="1">
          <mxGeometry x="895" y="618" width="150" height="30" as="geometry" />
        </mxCell>
        <mxCell id="Wh2dDNPKIwwX3DHT57Sx-17" value="" style="html=1;verticalAlign=bottom;labelBackgroundColor=none;endArrow=block;endFill=1;dashed=1;rounded=0;" edge="1" parent="1">
          <mxGeometry width="160" relative="1" as="geometry">
            <mxPoint x="1204.5" y="710" as="sourcePoint" />
            <mxPoint x="724.5" y="710" as="targetPoint" />
          </mxGeometry>
        </mxCell>
        <mxCell id="Wh2dDNPKIwwX3DHT57Sx-18" value="List&amp;lt;Forum&amp;gt;" style="text;html=1;align=center;verticalAlign=middle;resizable=0;points=[];autosize=1;strokeColor=none;fillColor=none;" vertex="1" parent="1">
          <mxGeometry x="910" y="688" width="90" height="30" as="geometry" />
        </mxCell>
        <mxCell id="Wh2dDNPKIwwX3DHT57Sx-19" value="" style="html=1;verticalAlign=bottom;labelBackgroundColor=none;endArrow=block;endFill=1;rounded=0;" edge="1" parent="1">
          <mxGeometry width="160" relative="1" as="geometry">
            <mxPoint x="410" y="1000" as="sourcePoint" />
            <mxPoint x="560" y="1000" as="targetPoint" />
          </mxGeometry>
        </mxCell>
        <mxCell id="Wh2dDNPKIwwX3DHT57Sx-20" value="selectionForum(Forum)" style="text;html=1;align=center;verticalAlign=middle;resizable=0;points=[];autosize=1;strokeColor=none;fillColor=none;" vertex="1" parent="1">
          <mxGeometry x="400" y="970" width="150" height="30" as="geometry" />
        </mxCell>
        <mxCell id="Wh2dDNPKIwwX3DHT57Sx-21" value="" style="html=1;verticalAlign=bottom;labelBackgroundColor=none;endArrow=block;endFill=1;rounded=0;" edge="1" parent="1">
          <mxGeometry width="160" relative="1" as="geometry">
            <mxPoint x="560" y="1050" as="sourcePoint" />
            <mxPoint x="720.5" y="1050" as="targetPoint" />
          </mxGeometry>
        </mxCell>
        <mxCell id="Wh2dDNPKIwwX3DHT57Sx-22" value="getForumMessages(forum)" style="text;html=1;align=center;verticalAlign=middle;resizable=0;points=[];autosize=1;strokeColor=none;fillColor=none;" vertex="1" parent="1">
          <mxGeometry x="550" y="1010" width="170" height="30" as="geometry" />
        </mxCell>
        <mxCell id="Wh2dDNPKIwwX3DHT57Sx-23" value="" style="html=1;verticalAlign=bottom;labelBackgroundColor=none;endArrow=block;endFill=1;rounded=0;" edge="1" parent="1" source="Wh2dDNPKIwwX3DHT57Sx-5">
          <mxGeometry width="160" relative="1" as="geometry">
            <mxPoint x="885" y="1100" as="sourcePoint" />
            <mxPoint x="1205" y="1100" as="targetPoint" />
          </mxGeometry>
        </mxCell>
        <mxCell id="Wh2dDNPKIwwX3DHT57Sx-24" value="SELECT * FROM Message WHERE forum_id = forum.id" style="text;html=1;align=center;verticalAlign=middle;resizable=0;points=[];autosize=1;strokeColor=none;fillColor=none;" vertex="1" parent="1">
          <mxGeometry x="825" y="1070" width="320" height="30" as="geometry" />
        </mxCell>
        <mxCell id="Wh2dDNPKIwwX3DHT57Sx-25" value="" style="html=1;verticalAlign=bottom;labelBackgroundColor=none;endArrow=block;endFill=1;dashed=1;rounded=0;" edge="1" parent="1" target="Wh2dDNPKIwwX3DHT57Sx-5">
          <mxGeometry width="160" relative="1" as="geometry">
            <mxPoint x="1205" y="1160" as="sourcePoint" />
            <mxPoint x="890.5" y="1160" as="targetPoint" />
          </mxGeometry>
        </mxCell>
        <mxCell id="Wh2dDNPKIwwX3DHT57Sx-26" value="List&amp;lt;Message&amp;gt;" style="text;html=1;align=center;verticalAlign=middle;resizable=0;points=[];autosize=1;strokeColor=none;fillColor=none;" vertex="1" parent="1">
          <mxGeometry x="955" y="1128" width="100" height="30" as="geometry" />
        </mxCell>
        <mxCell id="Wh2dDNPKIwwX3DHT57Sx-27" value="" style="html=1;verticalAlign=bottom;labelBackgroundColor=none;endArrow=block;endFill=1;dashed=1;rounded=0;exitX=0.683;exitY=1.1;exitDx=0;exitDy=0;exitPerimeter=0;" edge="1" parent="1" source="Wh2dDNPKIwwX3DHT57Sx-28">
          <mxGeometry width="160" relative="1" as="geometry">
            <mxPoint x="885" y="1210" as="sourcePoint" />
            <mxPoint x="565" y="1210" as="targetPoint" />
          </mxGeometry>
        </mxCell>
        <mxCell id="Wh2dDNPKIwwX3DHT57Sx-28" value="displayMessages(messages)" style="text;html=1;align=center;verticalAlign=middle;resizable=0;points=[];autosize=1;strokeColor=none;fillColor=none;" vertex="1" parent="1">
          <mxGeometry x="595" y="1178" width="180" height="30" as="geometry" />
        </mxCell>
        <mxCell id="Wh2dDNPKIwwX3DHT57Sx-29" value="" style="html=1;verticalAlign=bottom;labelBackgroundColor=none;endArrow=block;endFill=1;rounded=0;" edge="1" parent="1" source="Wh2dDNPKIwwX3DHT57Sx-1" target="Wh2dDNPKIwwX3DHT57Sx-4">
          <mxGeometry width="160" relative="1" as="geometry">
            <mxPoint x="745" y="1350" as="sourcePoint" />
            <mxPoint x="555" y="1350" as="targetPoint" />
            <Array as="points">
              <mxPoint x="495" y="1360" />
            </Array>
          </mxGeometry>
        </mxCell>
        <mxCell id="Wh2dDNPKIwwX3DHT57Sx-30" value="onMessageSend()" style="text;html=1;align=center;verticalAlign=middle;resizable=0;points=[];autosize=1;strokeColor=none;fillColor=none;" vertex="1" parent="1">
          <mxGeometry x="425" y="1338" width="120" height="30" as="geometry" />
        </mxCell>
        <mxCell id="Wh2dDNPKIwwX3DHT57Sx-31" value="" style="html=1;verticalAlign=bottom;labelBackgroundColor=none;endArrow=block;endFill=1;rounded=0;" edge="1" parent="1" source="Wh2dDNPKIwwX3DHT57Sx-4">
          <mxGeometry width="160" relative="1" as="geometry">
            <mxPoint x="575" y="1400" as="sourcePoint" />
            <mxPoint x="735" y="1400" as="targetPoint" />
          </mxGeometry>
        </mxCell>
        <mxCell id="Wh2dDNPKIwwX3DHT57Sx-32" value="submitMessage(user, forum, content)" style="text;html=1;align=center;verticalAlign=middle;resizable=0;points=[];autosize=1;strokeColor=none;fillColor=none;" vertex="1" parent="1">
          <mxGeometry x="535" y="1368" width="220" height="30" as="geometry" />
        </mxCell>
        <mxCell id="Wh2dDNPKIwwX3DHT57Sx-33" value="" style="html=1;verticalAlign=bottom;labelBackgroundColor=none;endArrow=block;endFill=1;rounded=0;" edge="1" parent="1">
          <mxGeometry width="160" relative="1" as="geometry">
            <mxPoint x="725" y="1450" as="sourcePoint" />
            <mxPoint x="880" y="1450" as="targetPoint" />
          </mxGeometry>
        </mxCell>
        <mxCell id="Wh2dDNPKIwwX3DHT57Sx-34" value="addMessage(message)" style="text;html=1;align=center;verticalAlign=middle;resizable=0;points=[];autosize=1;strokeColor=none;fillColor=none;" vertex="1" parent="1">
          <mxGeometry x="725" y="1428" width="150" height="30" as="geometry" />
        </mxCell>
        <mxCell id="Wh2dDNPKIwwX3DHT57Sx-35" value="" style="html=1;verticalAlign=bottom;labelBackgroundColor=none;endArrow=block;endFill=1;rounded=0;" edge="1" parent="1">
          <mxGeometry width="160" relative="1" as="geometry">
            <mxPoint x="884.8366666666666" y="1480" as="sourcePoint" />
            <mxPoint x="1205.17" y="1480" as="targetPoint" />
          </mxGeometry>
        </mxCell>
        <mxCell id="Wh2dDNPKIwwX3DHT57Sx-36" value="INSERT INTO Message ()" style="text;html=1;align=center;verticalAlign=middle;resizable=0;points=[];autosize=1;strokeColor=none;fillColor=none;" vertex="1" parent="1">
          <mxGeometry x="925" y="1448" width="160" height="30" as="geometry" />
        </mxCell>
        <mxCell id="Wh2dDNPKIwwX3DHT57Sx-37" value="alt" style="shape=umlFrame;whiteSpace=wrap;html=1;pointerEvents=0;" vertex="1" parent="1">
          <mxGeometry x="525" y="1510" width="420" height="200" as="geometry" />
        </mxCell>
        <mxCell id="Wh2dDNPKIwwX3DHT57Sx-38" value="alt" style="shape=umlFrame;whiteSpace=wrap;html=1;pointerEvents=0;" vertex="1" parent="1">
          <mxGeometry x="525" y="780" width="390" height="180" as="geometry" />
        </mxCell>
        <mxCell id="Wh2dDNPKIwwX3DHT57Sx-39" value="Κανένα διαθέσιμο φόρουμ" style="text;html=1;align=center;verticalAlign=middle;resizable=0;points=[];autosize=1;strokeColor=none;fillColor=none;" vertex="1" parent="1">
          <mxGeometry x="585" y="780" width="160" height="30" as="geometry" />
        </mxCell>
        <mxCell id="Wh2dDNPKIwwX3DHT57Sx-40" value="" style="html=1;verticalAlign=bottom;labelBackgroundColor=none;endArrow=block;endFill=1;dashed=1;rounded=0;" edge="1" parent="1">
          <mxGeometry width="160" relative="1" as="geometry">
            <mxPoint x="725.1800000000001" y="850.0000000000002" as="sourcePoint" />
            <mxPoint x="565.0035294117647" y="850.0000000000002" as="targetPoint" />
          </mxGeometry>
        </mxCell>
        <mxCell id="Wh2dDNPKIwwX3DHT57Sx-41" value="showMessage(&quot;Δεν υπάρχουν διαθέσιμα φόρουμ προς το παρόν.&quot;)" style="text;html=1;align=center;verticalAlign=middle;resizable=0;points=[];autosize=1;strokeColor=none;fillColor=none;" vertex="1" parent="1">
          <mxGeometry x="515" y="818" width="380" height="30" as="geometry" />
        </mxCell>
        <mxCell id="Wh2dDNPKIwwX3DHT57Sx-42" value="else" style="text;html=1;align=center;verticalAlign=middle;resizable=0;points=[];autosize=1;strokeColor=none;fillColor=none;" vertex="1" parent="1">
          <mxGeometry x="520" y="868" width="50" height="30" as="geometry" />
        </mxCell>
        <mxCell id="Wh2dDNPKIwwX3DHT57Sx-43" value="" style="html=1;verticalAlign=bottom;labelBackgroundColor=none;endArrow=block;endFill=1;dashed=1;rounded=0;" edge="1" parent="1" source="Wh2dDNPKIwwX3DHT57Sx-5" target="Wh2dDNPKIwwX3DHT57Sx-38">
          <mxGeometry width="160" relative="1" as="geometry">
            <mxPoint x="635" y="870" as="sourcePoint" />
            <mxPoint x="795" y="870" as="targetPoint" />
          </mxGeometry>
        </mxCell>
        <mxCell id="Wh2dDNPKIwwX3DHT57Sx-44" value="" style="html=1;verticalAlign=bottom;labelBackgroundColor=none;endArrow=block;endFill=1;dashed=1;rounded=0;" edge="1" parent="1">
          <mxGeometry width="160" relative="1" as="geometry">
            <mxPoint x="725" y="920.0000000000002" as="sourcePoint" />
            <mxPoint x="564.8235294117646" y="920.0000000000002" as="targetPoint" />
          </mxGeometry>
        </mxCell>
        <mxCell id="Wh2dDNPKIwwX3DHT57Sx-45" value="displayForums(forums)" style="text;html=1;align=center;verticalAlign=middle;resizable=0;points=[];autosize=1;strokeColor=none;fillColor=none;" vertex="1" parent="1">
          <mxGeometry x="570" y="898" width="150" height="30" as="geometry" />
        </mxCell>
        <mxCell id="Wh2dDNPKIwwX3DHT57Sx-46" value="end" style="text;html=1;align=center;verticalAlign=middle;resizable=0;points=[];autosize=1;strokeColor=none;fillColor=none;" vertex="1" parent="1">
          <mxGeometry x="525" y="928" width="40" height="30" as="geometry" />
        </mxCell>
        <mxCell id="Wh2dDNPKIwwX3DHT57Sx-47" value="Αποτυχία αποθήκευσης" style="text;html=1;align=center;verticalAlign=middle;resizable=0;points=[];autosize=1;strokeColor=none;fillColor=none;" vertex="1" parent="1">
          <mxGeometry x="585" y="1510" width="150" height="30" as="geometry" />
        </mxCell>
        <mxCell id="Wh2dDNPKIwwX3DHT57Sx-48" value="" style="html=1;verticalAlign=bottom;labelBackgroundColor=none;endArrow=block;endFill=1;dashed=1;rounded=0;" edge="1" parent="1">
          <mxGeometry width="160" relative="1" as="geometry">
            <mxPoint x="730.61" y="1580" as="sourcePoint" />
            <mxPoint x="569.9988888888889" y="1580" as="targetPoint" />
          </mxGeometry>
        </mxCell>
        <mxCell id="Wh2dDNPKIwwX3DHT57Sx-49" value="showMessage(&quot;Το μήνυμα δεν αποθηκεύτηκε. Παρακαλώ προσπαθήστε ξανά.&quot;)" style="text;html=1;align=center;verticalAlign=middle;resizable=0;points=[];autosize=1;strokeColor=none;fillColor=none;" vertex="1" parent="1">
          <mxGeometry x="520" y="1550" width="450" height="30" as="geometry" />
        </mxCell>
        <mxCell id="Wh2dDNPKIwwX3DHT57Sx-50" value="else" style="text;html=1;align=center;verticalAlign=middle;resizable=0;points=[];autosize=1;strokeColor=none;fillColor=none;" vertex="1" parent="1">
          <mxGeometry x="520" y="1608" width="50" height="30" as="geometry" />
        </mxCell>
        <mxCell id="Wh2dDNPKIwwX3DHT57Sx-51" value="Επιυχία" style="text;html=1;align=center;verticalAlign=middle;resizable=0;points=[];autosize=1;strokeColor=none;fillColor=none;" vertex="1" parent="1">
          <mxGeometry x="570" y="1608" width="60" height="30" as="geometry" />
        </mxCell>
        <mxCell id="Wh2dDNPKIwwX3DHT57Sx-52" value="" style="html=1;verticalAlign=bottom;labelBackgroundColor=none;endArrow=block;endFill=1;dashed=1;rounded=0;" edge="1" parent="1">
          <mxGeometry width="160" relative="1" as="geometry">
            <mxPoint x="725" y="1670" as="sourcePoint" />
            <mxPoint x="564.3888888888889" y="1670" as="targetPoint" />
          </mxGeometry>
        </mxCell>
        <mxCell id="Wh2dDNPKIwwX3DHT57Sx-53" value="displayMessages(messages)" style="text;html=1;align=center;verticalAlign=middle;resizable=0;points=[];autosize=1;strokeColor=none;fillColor=none;" vertex="1" parent="1">
          <mxGeometry x="555" y="1648" width="180" height="30" as="geometry" />
        </mxCell>
        <mxCell id="Wh2dDNPKIwwX3DHT57Sx-54" value="end" style="text;html=1;align=center;verticalAlign=middle;resizable=0;points=[];autosize=1;strokeColor=none;fillColor=none;" vertex="1" parent="1">
          <mxGeometry x="525" y="1678" width="40" height="30" as="geometry" />
        </mxCell>
      </root>
    </mxGraphModel>
  </diagram>
</mxfile>
